HIERARCHY
ROOT Hips
{
	OFFSET 0.000000 88.474243 0.000000
	CHANNELS 6 Xposition Yposition Zposition Zrotation Yrotation Xrotation 
	JOINT Hips_Spine
	{
		OFFSET 0.000000 0.000000 0.000000
		CHANNELS 3 Zrotation Yrotation Xrotation
		JOINT Spine
		{
			OFFSET 0.005100 8.711998 -0.691000
			CHANNELS 3 Zrotation Yrotation Xrotation
			JOINT Spine1
			{
				OFFSET -0.009200 8.660301 -1.275000
				CHANNELS 3 Zrotation Yrotation Xrotation
				JOINT Spine2
				{
					OFFSET 0.006300 9.852501 -1.857000
					CHANNELS 3 Zrotation Yrotation Xrotation
					JOINT Spine2_Neck
					{
						OFFSET 0.000000 0.000000 0.000000
						CHANNELS 3 Zrotation Yrotation Xrotation
						JOINT Neck
						{
							OFFSET 0.016300 11.420799 -0.263300
							CHANNELS 3 Zrotation Yrotation Xrotation
							End Site #name: Head
							{
								OFFSET -0.019200 9.262405 2.362500
							}
						}
					}
					JOINT Spine2_LeftShoulder
					{
						OFFSET 0.000000 0.000000 0.000000
						CHANNELS 3 Zrotation Yrotation Xrotation
						JOINT LeftShoulder
						{
							OFFSET 5.616900 6.732201 -0.345700
							CHANNELS 3 Zrotation Yrotation Xrotation
							JOINT LeftArm
							{
								OFFSET 10.664888 -0.183372 -2.440700
								CHANNELS 3 Zrotation Yrotation Xrotation
								JOINT LeftForeArm
								{
									OFFSET 27.459126 0.000000 0.000000
									CHANNELS 3 Zrotation Yrotation Xrotation
									End Site #name: LeftHand
									{
										OFFSET 21.306858 0.000000 0.000000
									}
								}
							}
						}
					}
					JOINT Spine2_RightShoulder
					{
						OFFSET 0.000000 0.000000 0.000000
						CHANNELS 3 Zrotation Yrotation Xrotation
						JOINT RightShoulder
						{
							OFFSET -5.580300 6.737503 -0.344400
							CHANNELS 3 Zrotation Yrotation Xrotation
							JOINT RightArm
							{
								OFFSET -10.679335 -0.188484 -2.383900
								CHANNELS 3 Zrotation Yrotation Xrotation
								JOINT RightForeArm
								{
									OFFSET -27.503529 0.000000 0.000000
									CHANNELS 3 Zrotation Yrotation Xrotation
									End Site #name: RightHand
									{
										OFFSET -21.306808 0.000000 0.000000
									}
								}
							}
						}
					}
				}
			}
		}
	}
	JOINT Hips_LeftUpLeg
	{
		OFFSET 0.000000 0.000000 0.000000
		CHANNELS 3 Zrotation Yrotation Xrotation
		JOINT LeftUpLeg
		{
			OFFSET 6.857700 -6.739601 0.312100
			CHANNELS 3 Zrotation Yrotation Xrotation
			JOINT LeftLeg
			{
				OFFSET -0.367590 -34.731552 -4.572400
				CHANNELS 3 Zrotation Yrotation Xrotation
				End Site #name: LeftFoot
				{
					OFFSET 0.367590 -34.656704 -6.067400
				}
			}
		}
	}
	JOINT Hips_RightUpLeg
	{
		OFFSET 0.000000 0.000000 0.000000
		CHANNELS 3 Zrotation Yrotation Xrotation
		JOINT RightUpLeg
		{
			OFFSET -6.876100 -6.733299 0.301000
			CHANNELS 3 Zrotation Yrotation Xrotation
			JOINT RightLeg
			{
				OFFSET 0.347353 -34.795158 -4.515900
				CHANNELS 3 Zrotation Yrotation Xrotation
				End Site #name: RightFoot
				{
					OFFSET -0.347353 -34.589367 -6.070300
				}
			}
		}
	}
}
MOTION
Frames: 17
Frame Time: 0.041667
-51.870777 86.923065 17.079552 9.956382 64.499957 -21.019095 0.000000 -0.000000 0.000000 -0.497307 8.374029 -28.881891 -0.763981 -31.496221 -9.697980 0.000000 0.000000 0.000000 -7.758551 -14.545301 -5.494209 -76.700447 10.633153 -19.392999 -12.793159 -3.741275 -2.356696 -92.628174 -16.046341 3.117118 -165.173822 51.460620 -127.484789 179.224620 -26.925359 176.210057 -16.841276 -14.051593 10.101197 66.394758 -6.891996 -14.298474 46.726074 42.906048 -131.191159 -179.712734 18.984072 179.343542 -0.000000 -0.000000 0.000000 45.262185 -15.022377 29.446678 65.975756 20.311045 124.730119 -0.000000 0.000000 0.000000 90.462360 16.321350 4.937860 -23.472030 22.963890 -59.346255 
-53.069141 89.633736 17.708494 9.688385 64.821875 -21.239099 0.000000 -0.000000 0.000000 -0.473096 8.274735 -28.448890 -0.602317 -32.084364 -10.319471 0.000000 0.000000 0.000000 -7.880462 -14.825827 -5.700720 -76.904557 10.740171 -19.606171 -13.191953 -3.693039 -2.534196 -92.536114 -16.210842 3.230460 -165.122313 51.605130 -127.346615 179.259642 -26.766213 176.216093 -17.184097 -14.134341 10.496881 67.483133 -7.703408 -15.338275 47.273219 42.832446 -130.689589 -179.663821 19.597500 179.256444 -0.000000 -0.000000 0.000000 45.894899 -15.309615 29.304823 67.154460 19.998581 125.495546 -0.000000 0.000000 0.000000 90.140125 16.726919 4.453622 -23.324210 22.979888 -59.135865 
-54.323364 92.369171 18.368076 9.406413 65.373210 -21.442228 0.000000 -0.000000 0.000000 -0.422323 8.145610 -27.863272 -0.434299 -32.683823 -10.940370 0.000000 0.000000 0.000000 -7.984730 -15.141160 -5.943254 -77.065553 10.721389 -19.791799 -13.612725 -3.622940 -2.680168 -92.407241 -16.347144 3.298969 -165.118468 51.735223 -127.237126 179.285874 -26.605804 176.224369 -17.536831 -14.238249 10.914911 68.693532 -8.455240 -16.281921 47.777136 42.820729 -130.240082 -179.590046 20.150041 179.152888 -0.000000 -0.000000 0.000000 46.613976 -15.672291 28.849548 68.304127 19.621066 126.282343 -0.000000 0.000000 0.000000 89.818184 17.242814 3.715221 -23.122080 22.981807 -58.730361 
-55.635761 95.116325 19.051010 9.114524 66.103962 -21.608036 0.000000 -0.000000 0.000000 -0.358602 7.959333 -27.171602 -0.276048 -33.317199 -11.526915 0.000000 0.000000 0.000000 -8.078803 -15.493615 -6.229298 -77.144181 10.563594 -19.977268 -14.050308 -3.539399 -2.790513 -92.234104 -16.468648 3.315013 -165.211157 51.856504 -127.183749 179.295494 -26.369686 176.240127 -17.886578 -14.371873 11.351007 69.960936 -9.020720 -17.107809 48.207256 42.964649 -129.858569 -179.494011 20.522301 179.047275 -0.000000 -0.000000 0.000000 47.384170 -16.086098 28.180272 69.320703 19.254024 126.955061 -0.000000 0.000000 0.000000 89.627534 17.868298 2.803395 -22.860659 23.020220 -58.210180 
-57.005402 97.870262 19.748220 8.823883 66.997271 -21.717860 0.000000 -0.000000 0.000000 -0.344250 7.698880 -26.363137 -0.159378 -33.946081 -12.061934 0.000000 0.000000 0.000000 -8.165076 -15.882537 -6.550622 -77.141518 10.288344 -20.179073 -14.494474 -3.446415 -2.863818 -91.983164 -16.583102 3.283412 -165.349455 52.007050 -127.125290 179.296789 -26.125889 176.257467 -18.226026 -14.537484 11.773933 71.336598 -9.365564 -17.801454 48.572642 43.210237 -129.552008 -179.388141 20.846546 178.931953 -0.000000 -0.000000 0.000000 48.171043 -16.526306 27.358422 70.063980 18.884170 127.472477 -0.000000 0.000000 0.000000 89.521615 18.710675 1.618025 -22.459462 23.062285 -57.452297 
-58.419666 100.630608 20.450300 8.524953 68.080254 -21.764341 0.000000 -0.000000 0.000000 -0.336476 7.432032 -25.563125 -0.077084 -34.550695 -12.648116 0.000000 0.000000 0.000000 -8.229166 -16.296836 -6.872406 -77.062680 9.894933 -20.388391 -14.953051 -3.335109 -2.917672 -91.637910 -16.666694 3.192031 -165.555252 52.170492 -127.075467 179.288246 -25.911580 176.278028 -18.563896 -14.711984 12.181472 72.790200 -9.548854 -18.400741 48.876546 43.602596 -129.301486 -179.274648 21.028653 178.806909 -0.000000 -0.000000 0.000000 48.965205 -17.010108 26.363072 70.490818 18.583232 127.847532 -0.000000 -0.000000 0.000000 89.378760 19.801265 0.206317 -21.932048 23.141191 -56.662889 
-59.864738 103.401131 21.147263 8.214583 69.325208 -21.760721 0.000000 -0.000000 0.000000 -0.361101 7.146193 -24.810176 -0.007688 -35.145548 -13.146117 0.000000 0.000000 0.000000 -8.252977 -16.736390 -7.208268 -76.915010 9.405895 -20.671954 -15.402901 -3.199240 -2.925294 -91.201959 -16.704944 3.012244 -165.826924 52.345195 -127.056677 179.269412 -25.742713 176.304172 -18.873162 -14.878408 12.538606 74.265045 -9.575801 -18.892070 49.069877 44.113615 -129.168172 -179.146712 21.083955 178.686687 -0.000000 -0.000000 0.000000 49.720213 -17.660427 25.158475 70.627414 18.512835 128.007103 -0.000000 -0.000000 0.000000 89.171314 20.913096 -1.036840 -21.359508 23.194076 -56.094238 
-61.329922 106.175896 21.830549 7.931262 70.690279 -21.700254 0.000000 -0.000000 0.000000 -0.420661 6.846485 -24.065283 0.032006 -35.688922 -13.497184 0.000000 0.000000 0.000000 -8.234591 -17.157295 -7.527875 -76.676607 8.826847 -21.063728 -15.810179 -3.058751 -2.899061 -90.675025 -16.688906 2.746521 -166.080545 52.487560 -127.006839 179.250034 -25.640870 176.341481 -19.158560 -15.012126 12.866878 75.718157 -9.432815 -19.216350 49.214104 44.735918 -129.104352 -179.010183 21.158088 178.563463 -0.000000 -0.000000 0.000000 50.454117 -18.319721 23.836488 70.370854 18.506346 128.001076 -0.000000 -0.000000 0.000000 89.054585 22.039552 -1.942071 -20.817256 23.221174 -55.904718 
-62.804302 108.950943 22.486355 7.686983 72.165650 -21.528488 0.000000 -0.000000 0.000000 -0.459759 6.611920 -23.532231 0.054981 -36.154230 -13.670961 0.000000 0.000000 0.000000 -8.186826 -17.531812 -7.809699 -76.288459 8.170336 -21.545453 -16.141924 -2.922957 -2.802369 -90.024218 -16.636111 2.393756 -166.323947 52.601353 -126.922881 179.206936 -25.577368 176.383563 -19.361816 -15.106662 13.129113 77.037173 -9.152859 -19.392628 49.297641 45.347138 -129.157065 -178.864928 21.187930 178.424637 -0.000000 -0.000000 0.000000 50.972366 -18.963170 22.487125 69.841169 18.644171 127.756542 -0.000000 -0.000000 0.000000 89.047047 23.253789 -2.510825 -20.277223 23.270794 -55.997360 
-64.284187 111.735672 23.123144 7.553185 73.640821 -21.129598 0.000000 -0.000000 0.000000 -0.270045 6.523746 -23.261010 0.084381 -36.519184 -13.702020 0.000000 0.000000 0.000000 -8.103787 -17.873963 -8.066652 -75.770357 7.400328 -22.046940 -16.391571 -2.790220 -2.595496 -89.275852 -16.538919 2.009665 -166.575430 52.700047 -126.809965 179.155572 -25.614985 176.423580 -19.489098 -15.154794 13.317273 78.232718 -8.713132 -19.387667 49.340152 45.906402 -129.289020 -178.752720 21.496343 178.271374 -0.000000 -0.000000 0.000000 51.259664 -19.599059 21.280149 69.067338 18.929063 127.209838 -0.000000 -0.000000 0.000000 89.039318 24.683655 -3.072964 -19.858820 23.376000 -56.128389 
-65.759514 114.543648 23.748571 7.421331 75.220349 -20.632338 0.000000 -0.000000 0.000000 0.005337 6.483997 -23.245532 0.109302 -36.760119 -13.599716 0.000000 0.000000 0.000000 -7.986617 -18.168457 -8.317701 -75.153249 6.589692 -22.598278 -16.532861 -2.668951 -2.268445 -88.413692 -16.403635 1.586243 -166.770814 52.801522 -126.621294 179.106670 -25.770719 176.457590 -19.522437 -15.134003 13.449406 79.385841 -8.199938 -19.269753 49.352188 46.413792 -129.481974 -178.656743 21.987851 178.110367 -0.000000 -0.000000 0.000000 51.607874 -20.125672 20.185965 68.067180 19.298074 126.427118 -0.000000 -0.000000 0.000000 89.108764 26.435888 -3.773196 -19.633665 23.555262 -56.116177 
-67.221458 117.388329 24.365246 7.379069 76.914758 -19.992287 0.000000 -0.000000 0.000000 0.342046 6.517535 -23.290869 0.140356 -36.863226 -13.386853 0.000000 0.000000 0.000000 -7.875995 -18.375644 -8.563134 -74.603472 5.784046 -23.076694 -16.594340 -2.541314 -1.849993 -87.455777 -16.211082 1.140291 -166.938407 52.923756 -126.371903 179.064527 -26.042670 176.494656 -19.484309 -15.029246 13.542858 80.518115 -7.652477 -19.084772 49.388078 46.875770 -129.651114 -178.593051 22.551089 177.931399 -0.000000 -0.000000 0.000000 52.241448 -20.261506 19.095457 66.850211 19.701947 125.423696 -0.000000 -0.000000 0.000000 89.310110 28.637707 -4.757583 -19.482891 23.833876 -55.834711 
-68.663246 120.272934 24.977514 7.372039 78.683001 -19.289817 0.000000 -0.000000 0.000000 0.541995 6.555160 -23.357392 0.197091 -36.892815 -13.216858 0.000000 0.000000 0.000000 -7.803549 -18.549286 -8.781315 -74.229703 4.974325 -23.452712 -16.602197 -2.422390 -1.347818 -86.376328 -15.986375 0.672390 -167.058562 53.084024 -126.038896 179.021215 -26.504653 176.527205 -19.390307 -14.859942 13.579249 81.607693 -7.102761 -18.861048 49.452334 47.366539 -129.729939 -178.540702 23.130829 177.752575 -0.000000 -0.000000 0.000000 52.990481 -20.301654 17.894856 65.434327 20.126584 124.301675 -0.000000 -0.000000 0.000000 89.798246 31.195636 -5.835869 -19.338985 24.233690 -55.344915 
-70.074402 123.177765 25.584127 7.316495 80.501082 -18.594596 0.000000 -0.000000 0.000000 0.678430 6.591363 -23.347568 0.287986 -36.984657 -13.127208 0.000000 0.000000 0.000000 -7.805828 -18.729125 -8.893323 -74.044586 4.335635 -23.942068 -16.631114 -2.281115 -0.802029 -85.011556 -15.572904 -0.000593 -167.139069 53.291522 -125.642859 178.989642 -27.185981 176.563389 -19.335418 -14.625330 13.725643 82.468532 -6.586237 -18.627682 49.689733 47.871555 -129.572245 -178.502006 23.709961 177.577847 0.000000 -0.000000 0.000000 53.827253 -20.222196 16.462985 63.767663 20.609468 122.991800 -0.000000 -0.000000 0.000000 90.740376 33.847948 -6.828551 -18.978238 24.824587 -54.535169 
-71.460258 126.103226 26.193687 7.077473 82.425752 -18.040419 0.000000 -0.000000 0.000000 0.750387 6.662817 -23.421513 0.416902 -37.141146 -13.129649 0.000000 0.000000 0.000000 -7.859537 -18.932559 -8.935914 -73.837053 3.857285 -24.583462 -16.689438 -2.127556 -0.171279 -83.282943 -14.935487 -0.965296 -167.185351 53.561806 -125.211909 178.969124 -28.097573 176.599050 -19.330013 -14.337171 14.005836 82.938239 -6.090291 -18.297704 50.039959 48.412478 -129.215837 -178.480252 24.324518 177.415084 0.000000 -0.000000 0.000000 54.738235 -19.757589 15.271261 61.968463 21.062404 121.538230 -0.000000 -0.000000 0.000000 91.860233 36.356998 -7.631896 -18.466575 25.553234 -53.522372 
-72.829269 129.017731 26.796759 6.614428 84.208132 -17.731923 0.000000 -0.000000 0.000000 0.857275 6.809271 -23.717085 0.559506 -37.385140 -13.117193 0.000000 0.000000 0.000000 -7.965411 -19.135811 -8.861920 -73.469009 3.522468 -25.280150 -16.743030 -1.963037 0.588387 -81.613070 -14.393101 -1.943479 -167.254973 53.868597 -124.778171 178.953383 -29.191415 176.636659 -19.384761 -14.059914 14.429507 83.074097 -5.624645 -17.912665 50.515711 49.011224 -128.612366 -178.494533 24.872929 177.240359 0.000000 -0.000000 0.000000 56.011783 -18.795140 13.845157 60.324710 21.252919 119.971619 -0.000000 -0.000000 0.000000 92.389662 39.119125 -9.813620 -17.980861 26.478923 -52.642011 
-74.198021 131.891510 27.383371 5.172341 85.992032 -18.406253 0.000000 -0.000000 0.000000 0.989158 7.019810 -23.937696 0.708375 -37.757292 -13.037171 0.000000 0.000000 0.000000 -8.153436 -19.349877 -8.454535 -72.807221 3.422306 -25.974184 -16.751463 -1.794799 1.568464 -80.191810 -13.845893 -2.706706 -167.371661 54.198659 -124.333219 178.942597 -30.412601 176.676214 -19.473978 -13.832078 14.948581 82.906162 -5.321652 -17.808330 51.000561 49.670308 -127.794190 -178.576704 26.164031 177.038530 0.000000 -0.000000 0.000000 57.626115 -17.086655 11.868547 58.874141 21.499216 118.447598 -0.000000 -0.000000 0.000000 92.834993 41.786785 -12.251323 -17.763174 27.217796 -51.898555 
